<svg width="315" height="178" viewBox="0 0 315 178" fill="none" xmlns="http://www.w3.org/2000/svg">
<path d="M72.576 127.328V140H10.24V49.12H71.424V61.792H24.576V87.648H65.152V99.552H24.576V127.328H72.576Z" fill="black"/>
<path d="M36.424 107.328V120H98.76V29.12H37.576V41.792H84.424V67.648H43.848V79.552H84.424V107.328H36.424Z" fill="black"/>
<path d="M129.412 85.816V91H111.448V65.44H129.088V70.624H117.352V75.592H127.432V80.38H117.352V85.816H129.412ZM136.599 72.1L139.947 77.428L140.307 78.112L140.667 77.428L144.015 72.1H149.955L143.619 81.496L150.099 91H144.159L140.631 85.708L140.307 85.024L139.983 85.708L136.455 91H130.515L136.995 81.604L130.659 72.1H136.599ZM163.995 91.36C162.579 91.36 161.343 91.06 160.287 90.46C159.231 89.836 158.403 88.996 157.803 87.94V98.668H152.043V72.1H157.047V75.16C157.743 74.08 158.619 73.24 159.675 72.64C160.731 72.04 161.967 71.74 163.383 71.74C164.655 71.74 165.819 71.992 166.875 72.496C167.955 73 168.891 73.696 169.683 74.584C170.475 75.472 171.087 76.504 171.519 77.68C171.951 78.856 172.167 80.128 172.167 81.496C172.167 83.368 171.819 85.048 171.123 86.536C170.427 88.024 169.455 89.2 168.207 90.064C166.983 90.928 165.579 91.36 163.995 91.36ZM162.051 86.5C162.675 86.5 163.239 86.368 163.743 86.104C164.271 85.816 164.727 85.444 165.111 84.988C165.495 84.532 165.783 84.004 165.975 83.404C166.191 82.78 166.299 82.132 166.299 81.46C166.299 80.764 166.179 80.128 165.939 79.552C165.723 78.976 165.411 78.472 165.003 78.04C164.595 77.584 164.115 77.236 163.563 76.996C163.011 76.756 162.411 76.636 161.763 76.636C161.379 76.636 160.983 76.696 160.575 76.816C160.191 76.936 159.819 77.116 159.459 77.356C159.123 77.572 158.811 77.836 158.523 78.148C158.235 78.46 157.995 78.82 157.803 79.228V83.116C158.067 83.764 158.415 84.34 158.847 84.844C159.279 85.348 159.771 85.756 160.323 86.068C160.875 86.356 161.451 86.5 162.051 86.5ZM184.07 91.36C182.462 91.36 181.022 91.096 179.75 90.568C178.502 90.04 177.446 89.32 176.582 88.408C175.718 87.496 175.058 86.452 174.602 85.276C174.17 84.1 173.954 82.864 173.954 81.568C173.954 80.248 174.17 79 174.602 77.824C175.058 76.648 175.718 75.604 176.582 74.692C177.446 73.78 178.502 73.06 179.75 72.532C181.022 72.004 182.462 71.74 184.07 71.74C185.678 71.74 187.106 72.004 188.354 72.532C189.602 73.06 190.658 73.78 191.522 74.692C192.386 75.604 193.046 76.648 193.502 77.824C193.958 79 194.186 80.248 194.186 81.568C194.186 82.864 193.958 84.1 193.502 85.276C193.046 86.452 192.386 87.496 191.522 88.408C190.658 89.32 189.602 90.04 188.354 90.568C187.106 91.096 185.678 91.36 184.07 91.36ZM179.858 81.568C179.858 82.552 180.038 83.416 180.398 84.16C180.782 84.904 181.286 85.48 181.91 85.888C182.534 86.296 183.254 86.5 184.07 86.5C184.862 86.5 185.57 86.296 186.194 85.888C186.842 85.456 187.346 84.868 187.706 84.124C188.066 83.38 188.246 82.528 188.246 81.568C188.246 80.584 188.066 79.72 187.706 78.976C187.346 78.232 186.842 77.656 186.194 77.248C185.57 76.84 184.862 76.636 184.07 76.636C183.254 76.636 182.534 76.84 181.91 77.248C181.286 77.656 180.782 78.232 180.398 78.976C180.038 79.72 179.858 80.584 179.858 81.568ZM209.031 77.032C207.639 77.032 206.379 77.26 205.251 77.716C204.123 78.148 203.307 78.796 202.803 79.66V91H197.043V72.1H202.335V75.916C202.983 74.644 203.823 73.648 204.855 72.928C205.887 72.208 206.967 71.836 208.095 71.812C208.359 71.812 208.551 71.812 208.671 71.812C208.815 71.812 208.935 71.824 209.031 71.848V77.032ZM223.697 89.992C223.169 90.208 222.581 90.424 221.933 90.64C221.309 90.856 220.649 91.024 219.953 91.144C219.257 91.288 218.573 91.36 217.901 91.36C216.941 91.36 216.053 91.204 215.237 90.892C214.445 90.556 213.809 90.016 213.329 89.272C212.873 88.528 212.645 87.544 212.645 86.32V76.456H210.233V72.1H212.645V66.088H218.405V72.1H222.257V76.456H218.405V84.34C218.405 84.964 218.561 85.42 218.873 85.708C219.185 85.972 219.581 86.104 220.061 86.104C220.469 86.104 220.901 86.032 221.357 85.888C221.837 85.744 222.245 85.588 222.581 85.42L223.697 89.992ZM252.775 85.816V91H234.811V65.44H252.451V70.624H240.715V75.592H250.795V80.38H240.715V85.816H252.775ZM254.706 85.348C254.706 84.1 255.054 83.008 255.75 82.072C256.446 81.136 257.406 80.404 258.63 79.876C259.854 79.324 261.258 79.048 262.842 79.048C263.61 79.048 264.366 79.12 265.11 79.264C265.854 79.384 266.502 79.564 267.054 79.804V78.976C267.054 77.944 266.742 77.152 266.118 76.6C265.494 76.048 264.546 75.772 263.274 75.772C262.218 75.772 261.222 75.952 260.286 76.312C259.374 76.672 258.402 77.188 257.37 77.86L255.642 74.188C256.89 73.372 258.186 72.76 259.53 72.352C260.898 71.944 262.338 71.74 263.85 71.74C266.682 71.74 268.878 72.424 270.438 73.792C272.022 75.136 272.814 77.092 272.814 79.66V84.592C272.814 85.168 272.898 85.576 273.066 85.816C273.258 86.032 273.582 86.164 274.038 86.212V91C273.558 91.096 273.102 91.168 272.67 91.216C272.262 91.264 271.902 91.288 271.59 91.288C270.51 91.288 269.682 91.072 269.106 90.64C268.554 90.208 268.206 89.62 268.062 88.876L267.954 88.048C267.114 89.128 266.106 89.956 264.93 90.532C263.778 91.084 262.566 91.36 261.294 91.36C260.046 91.36 258.918 91.096 257.91 90.568C256.926 90.04 256.146 89.32 255.57 88.408C254.994 87.496 254.706 86.476 254.706 85.348ZM266.154 86.068C266.418 85.852 266.634 85.612 266.802 85.348C266.97 85.084 267.054 84.832 267.054 84.592V82.9C266.574 82.708 266.034 82.564 265.434 82.468C264.858 82.348 264.318 82.288 263.814 82.288C262.758 82.288 261.882 82.528 261.186 83.008C260.49 83.464 260.142 84.076 260.142 84.844C260.142 85.276 260.262 85.672 260.502 86.032C260.742 86.392 261.066 86.68 261.474 86.896C261.906 87.112 262.41 87.22 262.986 87.22C263.562 87.22 264.138 87.112 264.714 86.896C265.29 86.68 265.77 86.404 266.154 86.068ZM284.224 91.36C282.616 91.36 281.044 91.096 279.508 90.568C277.972 90.04 276.676 89.26 275.62 88.228L277.6 84.592C278.752 85.432 279.868 86.068 280.948 86.5C282.052 86.932 283.084 87.148 284.044 87.148C284.788 87.148 285.364 87.028 285.772 86.788C286.18 86.548 286.384 86.176 286.384 85.672C286.384 85.312 286.264 85.036 286.024 84.844C285.784 84.628 285.412 84.436 284.908 84.268C284.428 84.1 283.828 83.92 283.108 83.728C281.668 83.248 280.468 82.78 279.508 82.324C278.548 81.868 277.828 81.316 277.348 80.668C276.868 79.996 276.628 79.132 276.628 78.076C276.628 76.804 276.94 75.7 277.564 74.764C278.212 73.804 279.124 73.06 280.3 72.532C281.476 72.004 282.88 71.74 284.512 71.74C285.808 71.74 287.068 71.944 288.292 72.352C289.54 72.76 290.704 73.444 291.784 74.404L289.552 78.004C288.472 77.26 287.512 76.72 286.672 76.384C285.832 76.048 285.016 75.88 284.224 75.88C283.816 75.88 283.444 75.928 283.108 76.024C282.772 76.12 282.496 76.288 282.28 76.528C282.088 76.744 281.992 77.032 281.992 77.392C281.992 77.752 282.088 78.04 282.28 78.256C282.496 78.472 282.82 78.664 283.252 78.832C283.708 78.976 284.272 79.156 284.944 79.372C286.504 79.828 287.8 80.296 288.832 80.776C289.864 81.232 290.632 81.808 291.136 82.504C291.664 83.176 291.928 84.076 291.928 85.204C291.928 87.124 291.232 88.636 289.84 89.74C288.472 90.82 286.6 91.36 284.224 91.36ZM303.918 91.36C302.31 91.36 300.882 91.108 299.634 90.604C298.386 90.076 297.318 89.368 296.43 88.48C295.566 87.592 294.906 86.572 294.45 85.42C293.994 84.244 293.766 83.02 293.766 81.748C293.766 79.924 294.162 78.268 294.954 76.78C295.77 75.268 296.934 74.056 298.446 73.144C299.958 72.208 301.782 71.74 303.918 71.74C306.054 71.74 307.866 72.196 309.354 73.108C310.866 74.02 312.018 75.22 312.81 76.708C313.602 78.172 313.998 79.768 313.998 81.496C313.998 81.832 313.974 82.168 313.926 82.504C313.902 82.816 313.878 83.092 313.854 83.332H299.886C299.958 84.172 300.186 84.88 300.57 85.456C300.978 86.032 301.494 86.476 302.118 86.788C302.742 87.076 303.402 87.22 304.098 87.22C304.962 87.22 305.766 87.016 306.51 86.608C307.278 86.2 307.806 85.648 308.094 84.952L312.99 86.32C312.51 87.304 311.826 88.18 310.938 88.948C310.074 89.692 309.042 90.28 307.842 90.712C306.666 91.144 305.358 91.36 303.918 91.36ZM299.742 79.804H307.95C307.854 79.012 307.626 78.328 307.266 77.752C306.906 77.152 306.426 76.696 305.826 76.384C305.226 76.048 304.566 75.88 303.846 75.88C303.102 75.88 302.43 76.048 301.83 76.384C301.254 76.696 300.786 77.152 300.426 77.752C300.066 78.328 299.838 79.012 299.742 79.804Z" fill="black"/>
</svg>
