<svg width="315" height="178" viewBox="0 0 315 178" fill="none" xmlns="http://www.w3.org/2000/svg">
<path d="M72.576 127.328V140H10.24V49.12H71.424V61.792H24.576V87.648H65.152V99.552H24.576V127.328H72.576Z" fill="white"/>
<path d="M36.424 107.328V120H98.76V29.12H37.576V41.792H84.424V67.648H43.848V79.552H84.424V107.328H36.424Z" fill="white"/>
<path d="M129.412 80.816V86H111.448V60.44H129.088V65.624H117.352V70.592H127.432V75.38H117.352V80.816H129.412ZM136.599 67.1L139.947 72.428L140.307 73.112L140.667 72.428L144.015 67.1H149.955L143.619 76.496L150.099 86H144.159L140.631 80.708L140.307 80.024L139.983 80.708L136.455 86H130.515L136.995 76.604L130.659 67.1H136.599ZM163.995 86.36C162.579 86.36 161.343 86.06 160.287 85.46C159.231 84.836 158.403 83.996 157.803 82.94V93.668H152.043V67.1H157.047V70.16C157.743 69.08 158.619 68.24 159.675 67.64C160.731 67.04 161.967 66.74 163.383 66.74C164.655 66.74 165.819 66.992 166.875 67.496C167.955 68 168.891 68.696 169.683 69.584C170.475 70.472 171.087 71.504 171.519 72.68C171.951 73.856 172.167 75.128 172.167 76.496C172.167 78.368 171.819 80.048 171.123 81.536C170.427 83.024 169.455 84.2 168.207 85.064C166.983 85.928 165.579 86.36 163.995 86.36ZM162.051 81.5C162.675 81.5 163.239 81.368 163.743 81.104C164.271 80.816 164.727 80.444 165.111 79.988C165.495 79.532 165.783 79.004 165.975 78.404C166.191 77.78 166.299 77.132 166.299 76.46C166.299 75.764 166.179 75.128 165.939 74.552C165.723 73.976 165.411 73.472 165.003 73.04C164.595 72.584 164.115 72.236 163.563 71.996C163.011 71.756 162.411 71.636 161.763 71.636C161.379 71.636 160.983 71.696 160.575 71.816C160.191 71.936 159.819 72.116 159.459 72.356C159.123 72.572 158.811 72.836 158.523 73.148C158.235 73.46 157.995 73.82 157.803 74.228V78.116C158.067 78.764 158.415 79.34 158.847 79.844C159.279 80.348 159.771 80.756 160.323 81.068C160.875 81.356 161.451 81.5 162.051 81.5ZM184.07 86.36C182.462 86.36 181.022 86.096 179.75 85.568C178.502 85.04 177.446 84.32 176.582 83.408C175.718 82.496 175.058 81.452 174.602 80.276C174.17 79.1 173.954 77.864 173.954 76.568C173.954 75.248 174.17 74 174.602 72.824C175.058 71.648 175.718 70.604 176.582 69.692C177.446 68.78 178.502 68.06 179.75 67.532C181.022 67.004 182.462 66.74 184.07 66.74C185.678 66.74 187.106 67.004 188.354 67.532C189.602 68.06 190.658 68.78 191.522 69.692C192.386 70.604 193.046 71.648 193.502 72.824C193.958 74 194.186 75.248 194.186 76.568C194.186 77.864 193.958 79.1 193.502 80.276C193.046 81.452 192.386 82.496 191.522 83.408C190.658 84.32 189.602 85.04 188.354 85.568C187.106 86.096 185.678 86.36 184.07 86.36ZM179.858 76.568C179.858 77.552 180.038 78.416 180.398 79.16C180.782 79.904 181.286 80.48 181.91 80.888C182.534 81.296 183.254 81.5 184.07 81.5C184.862 81.5 185.57 81.296 186.194 80.888C186.842 80.456 187.346 79.868 187.706 79.124C188.066 78.38 188.246 77.528 188.246 76.568C188.246 75.584 188.066 74.72 187.706 73.976C187.346 73.232 186.842 72.656 186.194 72.248C185.57 71.84 184.862 71.636 184.07 71.636C183.254 71.636 182.534 71.84 181.91 72.248C181.286 72.656 180.782 73.232 180.398 73.976C180.038 74.72 179.858 75.584 179.858 76.568ZM209.031 72.032C207.639 72.032 206.379 72.26 205.251 72.716C204.123 73.148 203.307 73.796 202.803 74.66V86H197.043V67.1H202.335V70.916C202.983 69.644 203.823 68.648 204.855 67.928C205.887 67.208 206.967 66.836 208.095 66.812C208.359 66.812 208.551 66.812 208.671 66.812C208.815 66.812 208.935 66.824 209.031 66.848V72.032ZM223.697 84.992C223.169 85.208 222.581 85.424 221.933 85.64C221.309 85.856 220.649 86.024 219.953 86.144C219.257 86.288 218.573 86.36 217.901 86.36C216.941 86.36 216.053 86.204 215.237 85.892C214.445 85.556 213.809 85.016 213.329 84.272C212.873 83.528 212.645 82.544 212.645 81.32V71.456H210.233V67.1H212.645V61.088H218.405V67.1H222.257V71.456H218.405V79.34C218.405 79.964 218.561 80.42 218.873 80.708C219.185 80.972 219.581 81.104 220.061 81.104C220.469 81.104 220.901 81.032 221.357 80.888C221.837 80.744 222.245 80.588 222.581 80.42L223.697 84.992ZM252.775 80.816V86H234.811V60.44H252.451V65.624H240.715V70.592H250.795V75.38H240.715V80.816H252.775ZM254.706 80.348C254.706 79.1 255.054 78.008 255.75 77.072C256.446 76.136 257.406 75.404 258.63 74.876C259.854 74.324 261.258 74.048 262.842 74.048C263.61 74.048 264.366 74.12 265.11 74.264C265.854 74.384 266.502 74.564 267.054 74.804V73.976C267.054 72.944 266.742 72.152 266.118 71.6C265.494 71.048 264.546 70.772 263.274 70.772C262.218 70.772 261.222 70.952 260.286 71.312C259.374 71.672 258.402 72.188 257.37 72.86L255.642 69.188C256.89 68.372 258.186 67.76 259.53 67.352C260.898 66.944 262.338 66.74 263.85 66.74C266.682 66.74 268.878 67.424 270.438 68.792C272.022 70.136 272.814 72.092 272.814 74.66V79.592C272.814 80.168 272.898 80.576 273.066 80.816C273.258 81.032 273.582 81.164 274.038 81.212V86C273.558 86.096 273.102 86.168 272.67 86.216C272.262 86.264 271.902 86.288 271.59 86.288C270.51 86.288 269.682 86.072 269.106 85.64C268.554 85.208 268.206 84.62 268.062 83.876L267.954 83.048C267.114 84.128 266.106 84.956 264.93 85.532C263.778 86.084 262.566 86.36 261.294 86.36C260.046 86.36 258.918 86.096 257.91 85.568C256.926 85.04 256.146 84.32 255.57 83.408C254.994 82.496 254.706 81.476 254.706 80.348ZM266.154 81.068C266.418 80.852 266.634 80.612 266.802 80.348C266.97 80.084 267.054 79.832 267.054 79.592V77.9C266.574 77.708 266.034 77.564 265.434 77.468C264.858 77.348 264.318 77.288 263.814 77.288C262.758 77.288 261.882 77.528 261.186 78.008C260.49 78.464 260.142 79.076 260.142 79.844C260.142 80.276 260.262 80.672 260.502 81.032C260.742 81.392 261.066 81.68 261.474 81.896C261.906 82.112 262.41 82.22 262.986 82.22C263.562 82.22 264.138 82.112 264.714 81.896C265.29 81.68 265.77 81.404 266.154 81.068ZM284.224 86.36C282.616 86.36 281.044 86.096 279.508 85.568C277.972 85.04 276.676 84.26 275.62 83.228L277.6 79.592C278.752 80.432 279.868 81.068 280.948 81.5C282.052 81.932 283.084 82.148 284.044 82.148C284.788 82.148 285.364 82.028 285.772 81.788C286.18 81.548 286.384 81.176 286.384 80.672C286.384 80.312 286.264 80.036 286.024 79.844C285.784 79.628 285.412 79.436 284.908 79.268C284.428 79.1 283.828 78.92 283.108 78.728C281.668 78.248 280.468 77.78 279.508 77.324C278.548 76.868 277.828 76.316 277.348 75.668C276.868 74.996 276.628 74.132 276.628 73.076C276.628 71.804 276.94 70.7 277.564 69.764C278.212 68.804 279.124 68.06 280.3 67.532C281.476 67.004 282.88 66.74 284.512 66.74C285.808 66.74 287.068 66.944 288.292 67.352C289.54 67.76 290.704 68.444 291.784 69.404L289.552 73.004C288.472 72.26 287.512 71.72 286.672 71.384C285.832 71.048 285.016 70.88 284.224 70.88C283.816 70.88 283.444 70.928 283.108 71.024C282.772 71.12 282.496 71.288 282.28 71.528C282.088 71.744 281.992 72.032 281.992 72.392C281.992 72.752 282.088 73.04 282.28 73.256C282.496 73.472 282.82 73.664 283.252 73.832C283.708 73.976 284.272 74.156 284.944 74.372C286.504 74.828 287.8 75.296 288.832 75.776C289.864 76.232 290.632 76.808 291.136 77.504C291.664 78.176 291.928 79.076 291.928 80.204C291.928 82.124 291.232 83.636 289.84 84.74C288.472 85.82 286.6 86.36 284.224 86.36ZM303.918 86.36C302.31 86.36 300.882 86.108 299.634 85.604C298.386 85.076 297.318 84.368 296.43 83.48C295.566 82.592 294.906 81.572 294.45 80.42C293.994 79.244 293.766 78.02 293.766 76.748C293.766 74.924 294.162 73.268 294.954 71.78C295.77 70.268 296.934 69.056 298.446 68.144C299.958 67.208 301.782 66.74 303.918 66.74C306.054 66.74 307.866 67.196 309.354 68.108C310.866 69.02 312.018 70.22 312.81 71.708C313.602 73.172 313.998 74.768 313.998 76.496C313.998 76.832 313.974 77.168 313.926 77.504C313.902 77.816 313.878 78.092 313.854 78.332H299.886C299.958 79.172 300.186 79.88 300.57 80.456C300.978 81.032 301.494 81.476 302.118 81.788C302.742 82.076 303.402 82.22 304.098 82.22C304.962 82.22 305.766 82.016 306.51 81.608C307.278 81.2 307.806 80.648 308.094 79.952L312.99 81.32C312.51 82.304 311.826 83.18 310.938 83.948C310.074 84.692 309.042 85.28 307.842 85.712C306.666 86.144 305.358 86.36 303.918 86.36ZM299.742 74.804H307.95C307.854 74.012 307.626 73.328 307.266 72.752C306.906 72.152 306.426 71.696 305.826 71.384C305.226 71.048 304.566 70.88 303.846 70.88C303.102 70.88 302.43 71.048 301.83 71.384C301.254 71.696 300.786 72.152 300.426 72.752C300.066 73.328 299.838 74.012 299.742 74.804Z" fill="white"/>
</svg>
